<svg width="22" height="22" viewBox="0 0 22 22" fill="none" xmlns="http://www.w3.org/2000/svg">
<path d="M16.8333 21.6403H5.16667C3.878 21.6403 2.83333 20.6782 2.83333 19.4912V5.52193H0.5V3.37281H5.16667V2.29824C5.16667 1.11132 6.21134 0.149122 7.5 0.149122H14.5C15.7887 0.149122 16.8333 1.11132 16.8333 2.29824V3.37281H21.5V5.52193H19.1667V19.4912C19.1667 20.6782 18.122 21.6403 16.8333 21.6403ZM5.16667 5.52193V19.4912H16.8333V5.52193H5.16667ZM7.5 2.29824V3.37281H14.5V2.29824H7.5ZM14.5 17.3421H12.1667V7.67105H14.5V17.3421ZM9.83333 17.3421H7.5V7.67105H9.83333V17.3421Z" fill="#576CBC"/>
</svg>
