<svg width="55" height="55" viewBox="0 0 55 55" fill="none" xmlns="http://www.w3.org/2000/svg">
<path d="M10.1292 47.1598C9.4863 47.1586 8.87347 46.8876 8.44019 46.4127C7.99892 45.9416 7.77965 45.3047 7.83748 44.6618L8.39894 38.4881L34.336 12.5602L42.4417 20.6635L16.5114 46.5891L10.3377 47.1506C10.2667 47.1575 10.1956 47.1598 10.1292 47.1598ZM44.0596 19.0433L35.9562 10.94L40.8169 6.07934C41.2467 5.64902 41.83 5.40723 42.4382 5.40723C43.0464 5.40723 43.6297 5.64902 44.0596 6.07934L48.9202 10.94C49.3505 11.3698 49.5923 11.9531 49.5923 12.5613C49.5923 13.1695 49.3505 13.7528 48.9202 14.1827L44.0619 19.041L44.0596 19.0433Z" fill="#576CBC"/>
</svg>
